<?xml version="1.0" standalone="no"?>
<!DOCTYPE svg PUBLIC "-//W3C//DTD SVG 20010904//EN"
 "http://www.w3.org/TR/2001/REC-SVG-20010904/DTD/svg10.dtd">
<svg version="1.0" xmlns="http://www.w3.org/2000/svg"
 width="512.000000pt" height="512.000000pt" viewBox="0 0 512.000000 512.000000"
 preserveAspectRatio="xMidYMid meet">

<g transform="translate(0.000000,512.000000) scale(0.100000,-0.100000)"
fill="#000000" stroke="none">
<path d="M2420 4999 c-591 -29 -1167 -287 -1596 -716 -863 -863 -960 -2231
-228 -3213 95 -127 296 -336 419 -435 340 -272 718 -443 1150 -516 155 -27
497 -37 657 -19 276 29 584 116 711 200 138 90 235 196 303 332 82 162 114
321 114 558 l0 156 142 17 c332 42 553 130 698 277 80 81 120 155 153 285 88
337 101 732 36 1075 -198 1047 -1053 1853 -2104 1984 -149 19 -280 23 -455 15z
m181 -149 c130 -13 321 -52 431 -86 45 -14 85 -28 87 -30 2 -2 -3 -10 -10 -18
-8 -8 -25 -29 -39 -47 -14 -18 -39 -48 -57 -67 -17 -18 -33 -37 -35 -42 -4
-11 -119 -139 -150 -168 -16 -14 -28 -31 -28 -37 0 -7 -15 -25 -32 -42 -18
-17 -47 -48 -65 -69 -17 -22 -45 -54 -62 -72 -17 -18 -31 -37 -31 -42 0 -5 -6
-13 -13 -17 -6 -4 -27 -25 -45 -46 -17 -21 -32 -35 -32 -31 0 3 -6 1 -13 -5
-8 -6 -23 -12 -35 -14 -30 -4 -40 -17 -14 -17 21 0 22 -4 22 -99 l0 -99 -27
-6 c-16 -3 -127 -19 -248 -37 -121 -17 -221 -33 -223 -34 -6 -5 653 -1315 660
-1313 4 2 136 181 294 398 157 217 300 412 316 432 l29 37 -33 9 c-18 5 -104
26 -190 47 l-157 39 -5 36 c-3 19 -8 70 -12 113 l-6 77 681 0 c374 0 681 -1
681 -3 0 -18 -82 -214 -92 -220 -7 -4 -96 -27 -198 -52 -139 -34 -190 -51
-207 -68 -11 -12 -229 -265 -483 -561 l-461 -539 6 -51 c3 -28 21 -249 41
-491 19 -241 37 -441 40 -444 2 -3 126 -15 275 -27 148 -11 272 -24 275 -27 5
-5 -14 -198 -21 -205 -5 -5 -1806 -34 -1811 -29 -5 5 32 216 39 223 3 4 567
94 586 94 8 0 11 133 11 478 l0 478 -171 294 c-94 162 -292 502 -440 755
l-268 460 -112 23 c-61 13 -113 21 -116 19 -4 -5 102 -57 116 -57 13 0 107
-53 129 -74 30 -27 48 -69 56 -132 6 -42 4 -53 -16 -76 -61 -71 -60 -69 -46
-86 7 -9 68 -75 136 -146 67 -71 122 -132 122 -136 0 -7 -21 -33 -64 -80 -12
-14 -44 -52 -71 -85 -42 -53 -79 -94 -186 -212 -16 -18 -29 -36 -29 -41 0 -4
-13 -19 -30 -34 -16 -14 -49 -50 -72 -80 -22 -29 -48 -60 -57 -69 -9 -8 -35
-38 -58 -65 -64 -75 -81 -95 -126 -144 -23 -24 -42 -48 -42 -52 0 -4 -10 -18
-22 -30 -13 -13 -42 -45 -65 -73 -24 -27 -54 -59 -67 -72 -13 -13 -21 -23 -18
-23 3 0 -7 -13 -21 -29 -15 -16 -43 -47 -62 -70 -19 -22 -53 -61 -75 -85 -36
-40 -72 -82 -108 -125 -7 -8 -22 -28 -34 -44 l-21 -29 -17 25 c-28 44 -102
219 -140 333 -79 239 -110 469 -102 754 10 347 75 614 226 925 410 841 1311
1347 2232 1255z"/>
</g>
</svg>
